<svg xmlns="http://www.w3.org/2000/svg" xmlns:xlink="http://www.w3.org/1999/xlink" width="500" zoomAndPan="magnify" viewBox="0 0 375 374.999991" height="500" preserveAspectRatio="xMidYMid meet" version="1.0"><defs><g/><clipPath id="2fe2f79ba7"><path d="M 176 70.390625 L 181 70.390625 L 181 85 L 176 85 Z M 176 70.390625 " clip-rule="nonzero"/></clipPath><clipPath id="6d19b7cc78"><path d="M 254 135 L 266.894531 135 L 266.894531 142 L 254 142 Z M 254 135 " clip-rule="nonzero"/></clipPath></defs><path fill="#00a8e8" d="M 217.550781 124.398438 C 212.117188 119.441406 204.9375 120.078125 199 123.792969 C 195.535156 125.953125 192.519531 128.941406 190.070312 132.210938 C 188.675781 134.085938 187.65625 135.960938 186.863281 137.964844 C 184.417969 132.722656 178.0625 128.496094 173.171875 126.71875 C 166.054688 124.144531 158.273438 125.765625 153.761719 132.054688 C 149.089844 138.566406 148.835938 147.335938 152.234375 154.417969 C 155.636719 161.535156 162.085938 166.933594 168.152344 171.699219 C 171.710938 174.496094 175.332031 177.292969 178.953125 180.023438 C 180.953125 181.515625 182.859375 183.136719 184.796875 184.664062 C 185.304688 186.25 186.957031 187.554688 188.769531 187.554688 C 189.691406 187.964844 190.835938 187.457031 191.3125 186.601562 C 197.757812 181.167969 204.335938 175.832031 210.210938 169.730469 C 216.21875 163.472656 222.15625 156.101562 224.285156 147.523438 C 226.222656 139.582031 223.714844 129.988281 217.550781 124.398438 Z M 216.882812 147.082031 C 214.628906 154.007812 209.417969 159.851562 204.335938 164.902344 C 199.15625 170.082031 193.4375 174.71875 187.847656 179.453125 C 185.019531 176.210938 181.273438 173.542969 177.9375 171 C 172.410156 166.777344 166.660156 162.613281 162.019531 157.40625 C 158.113281 153.019531 155.253906 147.429688 156.492188 141.425781 C 157.730469 135.292969 161.828125 130.910156 168.375 131.355469 C 171.773438 131.578125 175.140625 132.945312 178 134.691406 C 180.984375 136.535156 183.019531 139.171875 185.59375 141.425781 C 185.464844 141.839844 185.339844 142.285156 185.210938 142.726562 C 184.988281 143.492188 186.039062 143.871094 186.449219 143.238281 C 186.769531 142.761719 187.148438 142.285156 187.5 141.808594 C 187.59375 141.742188 187.6875 141.648438 187.722656 141.519531 C 189.214844 139.679688 191.023438 137.898438 192.613281 136.277344 C 194.742188 134.117188 196.839844 131.957031 199.316406 130.179688 C 203.191406 127.449219 208.59375 124.714844 212.785156 128.335938 C 218.027344 132.976562 218.949219 140.855469 216.882812 147.082031 Z M 216.882812 147.082031 " fill-opacity="1" fill-rule="nonzero"/><g clip-path="url(#2fe2f79ba7)"><path fill="#00a8e8" d="M 177.585938 84.433594 C 177.90625 84.6875 178.601562 84.6875 178.921875 84.433594 C 180.574219 83.164062 180.351562 81.511719 180.289062 79.542969 C 180.222656 77.191406 180.128906 74.777344 179.84375 72.457031 C 179.589844 70.390625 176.886719 70.390625 176.632812 72.457031 C 176.347656 74.777344 176.253906 77.191406 176.1875 79.542969 C 176.15625 81.511719 175.933594 83.164062 177.585938 84.433594 Z M 177.585938 84.433594 " fill-opacity="1" fill-rule="nonzero"/></g><path fill="#00a8e8" d="M 154.332031 88.660156 C 153.378906 87.261719 152.394531 85.925781 151.441406 84.5625 C 150.550781 83.289062 149.726562 81.734375 148.550781 80.683594 C 147.691406 79.921875 145.882812 80.367188 146.042969 81.734375 C 146.390625 85.195312 149.503906 88.277344 151.792969 90.628906 C 153.03125 91.929688 155.382812 90.214844 154.332031 88.660156 Z M 154.332031 88.660156 " fill-opacity="1" fill-rule="nonzero"/><path fill="#00a8e8" d="M 121.929688 105.910156 C 120.691406 105.75 120.085938 107.527344 120.945312 108.292969 C 122.851562 110.070312 125.074219 111.5625 127.679688 112.039062 C 129.332031 112.359375 130.601562 110.484375 129.363281 109.179688 C 127.363281 107.117188 124.722656 106.226562 121.929688 105.910156 Z M 121.929688 105.910156 " fill-opacity="1" fill-rule="nonzero"/><path fill="#00a8e8" d="M 118.910156 134.085938 C 116.304688 132.847656 113.097656 132.53125 110.300781 133.292969 C 107.949219 133.929688 108.746094 136.914062 110.84375 137.199219 C 113.160156 137.519531 115.480469 137.867188 117.832031 138.152344 C 119.925781 138.4375 120.785156 134.976562 118.910156 134.085938 Z M 118.910156 134.085938 " fill-opacity="1" fill-rule="nonzero"/><path fill="#00a8e8" d="M 122.4375 167.285156 C 120.5625 167.253906 118.625 168.046875 117.035156 168.96875 C 115.289062 170.015625 114.019531 171.222656 112.8125 172.84375 C 111.636719 174.464844 113.574219 176.402344 115.257812 176.019531 C 118.308594 175.289062 121.832031 173.160156 123.867188 170.714844 C 124.945312 169.414062 124.3125 167.347656 122.4375 167.285156 Z M 122.4375 167.285156 " fill-opacity="1" fill-rule="nonzero"/><path fill="#00a8e8" d="M 136.636719 195.273438 C 135.335938 195.558594 134.222656 196.128906 133.269531 197.050781 C 132.347656 197.941406 131.585938 199.242188 131.300781 200.484375 C 130.855469 202.484375 133.238281 203.976562 134.796875 202.515625 C 136.097656 201.246094 137.273438 199.816406 138.605469 198.578125 C 140.101562 197.179688 138.480469 194.890625 136.636719 195.273438 Z M 136.636719 195.273438 " fill-opacity="1" fill-rule="nonzero"/><path fill="#00a8e8" d="M 157.542969 214.078125 C 154.90625 215.761719 154.363281 219.925781 154.460938 222.785156 C 154.523438 224.277344 156.589844 224.5625 157.03125 223.132812 C 157.476562 221.765625 157.953125 220.402344 158.398438 219.003906 C 158.8125 217.734375 159.351562 216.398438 159.191406 215.03125 C 159.097656 214.269531 158.304688 213.601562 157.542969 214.078125 Z M 157.542969 214.078125 " fill-opacity="1" fill-rule="nonzero"/><path fill="#00a8e8" d="M 184.226562 220.847656 C 183.84375 219.765625 182.320312 219.449219 181.714844 220.527344 C 180.222656 223.101562 180.984375 226.53125 182.351562 228.980469 C 183.273438 230.597656 185.371094 229.390625 185.148438 227.804688 C 184.828125 225.546875 184.957031 223.007812 184.226562 220.847656 Z M 184.226562 220.847656 " fill-opacity="1" fill-rule="nonzero"/><path fill="#00a8e8" d="M 234.007812 204.421875 C 232.515625 203.753906 230.925781 205.46875 232.195312 206.773438 C 234.453125 209.09375 237.5 210.808594 240.394531 212.207031 C 241.503906 212.746094 242.648438 211.664062 242.078125 210.523438 C 240.550781 207.472656 237.058594 205.757812 234.007812 204.421875 Z M 234.007812 204.421875 " fill-opacity="1" fill-rule="nonzero"/><path fill="#00a8e8" d="M 252.210938 186.027344 C 249.988281 185.519531 247.445312 184.917969 245.191406 185.457031 C 243.695312 185.804688 243.539062 187.902344 244.777344 188.632812 C 246.585938 189.746094 248.90625 190.0625 250.90625 190.699219 C 253.003906 191.332031 255.070312 191.808594 257.261719 191.875 C 258.628906 191.90625 259.515625 190 258.4375 189.078125 C 256.625 187.519531 254.5625 186.535156 252.210938 186.027344 Z M 252.210938 186.027344 " fill-opacity="1" fill-rule="nonzero"/><path fill="#00a8e8" d="M 262.851562 164.648438 C 260.28125 163.125 256.722656 161.980469 253.796875 163.21875 C 252.78125 163.664062 252.113281 165.378906 253.449219 165.949219 C 255.925781 167.0625 258.816406 167.347656 261.488281 167.953125 C 263.425781 168.398438 264.664062 165.726562 262.851562 164.648438 Z M 262.851562 164.648438 " fill-opacity="1" fill-rule="nonzero"/><g clip-path="url(#6d19b7cc78)"><path fill="#00a8e8" d="M 265.042969 135.390625 C 261.644531 135.039062 257.769531 136.183594 255.324219 138.695312 C 253.925781 140.15625 255.671875 142.027344 257.355469 141.332031 C 260.121094 140.15625 263.074219 139.390625 265.742188 137.996094 C 267.046875 137.230469 266.285156 135.515625 265.042969 135.390625 Z M 265.042969 135.390625 " fill-opacity="1" fill-rule="nonzero"/></g><path fill="#00a8e8" d="M 247.828125 116.074219 C 250.304688 114.296875 253.003906 112.738281 255.292969 110.707031 C 256.246094 109.847656 255.515625 108.039062 254.210938 108.101562 C 250.464844 108.324219 247.859375 111.308594 246.207031 114.453125 C 245.699219 115.4375 246.777344 116.835938 247.828125 116.074219 Z M 247.828125 116.074219 " fill-opacity="1" fill-rule="nonzero"/><path fill="#00a8e8" d="M 232.832031 89.292969 C 234.230469 87.992188 235.691406 86.816406 236.546875 85.070312 C 237.597656 82.941406 235.152344 81.226562 233.402344 82.621094 C 230.355469 85.035156 226.605469 88.40625 226.382812 92.566406 C 226.289062 94.15625 228.289062 94.34375 229.082031 93.296875 C 230.226562 91.835938 231.464844 90.566406 232.832031 89.292969 Z M 232.832031 89.292969 " fill-opacity="1" fill-rule="nonzero"/><path fill="#00a8e8" d="M 204.527344 82.941406 C 205.480469 79.351562 207.035156 76.269531 206.8125 72.457031 C 206.71875 70.742188 204.558594 70.582031 203.953125 72.074219 C 202.492188 75.570312 201.316406 78.683594 201.476562 82.527344 C 201.570312 84.210938 204.082031 84.65625 204.527344 82.941406 Z M 204.527344 82.941406 " fill-opacity="1" fill-rule="nonzero"/><path fill="#00a8e8" d="M 212.375 218.910156 C 212.339844 217.734375 211.515625 216.75 210.339844 216.589844 C 209.292969 216.460938 207.925781 217.097656 207.765625 218.273438 C 207.574219 219.574219 207.386719 220.910156 207.511719 222.242188 C 207.671875 223.707031 208.179688 224.945312 208.785156 226.246094 C 209.261719 227.296875 210.722656 227.613281 211.675781 227.199219 C 212.816406 226.691406 213.230469 225.644531 213.007812 224.46875 C 212.722656 222.65625 212.4375 220.75 212.375 218.910156 Z M 212.375 218.910156 " fill-opacity="1" fill-rule="nonzero"/><g fill="#00a8e8" fill-opacity="1"><g transform="translate(102.37291, 261.15845)"><g><path d="M 3.71875 -12.375 L 3.71875 0 L 0.90625 0 L 0.90625 -12.375 Z M 3.71875 -12.375 "/></g></g></g><g fill="#00a8e8" fill-opacity="1"><g transform="translate(106.992901, 261.15845)"><g><path d="M 0.90625 0 L 0.90625 -7.6875 L 3.5625 -7.6875 L 3.5625 -6.890625 L 3.578125 -6.890625 C 4.273438 -7.578125 5.015625 -7.921875 5.796875 -7.921875 C 6.171875 -7.921875 6.546875 -7.867188 6.921875 -7.765625 C 7.296875 -7.671875 7.65625 -7.515625 8 -7.296875 C 8.34375 -7.085938 8.625 -6.789062 8.84375 -6.40625 C 9.0625 -6.019531 9.171875 -5.570312 9.171875 -5.0625 L 9.171875 0 L 6.515625 0 L 6.515625 -4.34375 C 6.515625 -4.75 6.382812 -5.097656 6.125 -5.390625 C 5.875 -5.691406 5.539062 -5.84375 5.125 -5.84375 C 4.726562 -5.84375 4.367188 -5.6875 4.046875 -5.375 C 3.722656 -5.070312 3.5625 -4.726562 3.5625 -4.34375 L 3.5625 0 Z M 0.90625 0 "/></g></g></g><g fill="#00a8e8" fill-opacity="1"><g transform="translate(116.90789, 261.15845)"><g><path d="M 4.25 -7.921875 C 4.6875 -7.921875 5.117188 -7.867188 5.546875 -7.765625 C 5.972656 -7.671875 6.296875 -7.570312 6.515625 -7.46875 L 6.828125 -7.3125 L 5.953125 -5.578125 C 5.359375 -5.898438 4.789062 -6.0625 4.25 -6.0625 C 3.945312 -6.0625 3.734375 -6.023438 3.609375 -5.953125 C 3.484375 -5.890625 3.421875 -5.769531 3.421875 -5.59375 C 3.421875 -5.550781 3.425781 -5.507812 3.4375 -5.46875 C 3.445312 -5.4375 3.46875 -5.398438 3.5 -5.359375 C 3.53125 -5.328125 3.554688 -5.296875 3.578125 -5.265625 C 3.597656 -5.242188 3.640625 -5.21875 3.703125 -5.1875 C 3.765625 -5.15625 3.8125 -5.128906 3.84375 -5.109375 C 3.882812 -5.097656 3.941406 -5.078125 4.015625 -5.046875 C 4.097656 -5.023438 4.160156 -5.003906 4.203125 -4.984375 C 4.242188 -4.972656 4.3125 -4.953125 4.40625 -4.921875 C 4.5 -4.890625 4.570312 -4.867188 4.625 -4.859375 C 4.925781 -4.765625 5.191406 -4.660156 5.421875 -4.546875 C 5.660156 -4.441406 5.90625 -4.296875 6.15625 -4.109375 C 6.414062 -3.921875 6.613281 -3.679688 6.75 -3.390625 C 6.882812 -3.097656 6.953125 -2.769531 6.953125 -2.40625 C 6.953125 -0.65625 5.738281 0.21875 3.3125 0.21875 C 2.757812 0.21875 2.234375 0.132812 1.734375 -0.03125 C 1.242188 -0.195312 0.890625 -0.367188 0.671875 -0.546875 L 0.34375 -0.8125 L 1.421875 -2.625 C 1.503906 -2.550781 1.609375 -2.46875 1.734375 -2.375 C 1.867188 -2.28125 2.101562 -2.148438 2.4375 -1.984375 C 2.78125 -1.816406 3.078125 -1.734375 3.328125 -1.734375 C 3.878906 -1.734375 4.15625 -1.921875 4.15625 -2.296875 C 4.15625 -2.460938 4.082031 -2.59375 3.9375 -2.6875 C 3.800781 -2.78125 3.566406 -2.882812 3.234375 -3 C 2.898438 -3.125 2.632812 -3.238281 2.4375 -3.34375 C 1.957031 -3.59375 1.578125 -3.875 1.296875 -4.1875 C 1.023438 -4.507812 0.890625 -4.925781 0.890625 -5.4375 C 0.890625 -6.21875 1.191406 -6.828125 1.796875 -7.265625 C 2.398438 -7.703125 3.21875 -7.921875 4.25 -7.921875 Z M 4.25 -7.921875 "/></g></g></g><g fill="#00a8e8" fill-opacity="1"><g transform="translate(124.287886, 261.15845)"><g><path d="M 1.34375 -7.6875 L 1.34375 -10.5625 L 4 -10.5625 L 4 -7.6875 L 5.625 -7.6875 L 5.625 -5.671875 L 4 -5.671875 L 4 -3.21875 C 4 -2.507812 4.203125 -2.15625 4.609375 -2.15625 C 4.703125 -2.15625 4.800781 -2.175781 4.90625 -2.21875 C 5.019531 -2.257812 5.109375 -2.300781 5.171875 -2.34375 L 5.265625 -2.40625 L 5.921875 -0.25 C 5.347656 0.0625 4.695312 0.21875 3.96875 0.21875 C 3.46875 0.21875 3.035156 0.132812 2.671875 -0.03125 C 2.316406 -0.207031 2.046875 -0.441406 1.859375 -0.734375 C 1.679688 -1.035156 1.550781 -1.347656 1.46875 -1.671875 C 1.382812 -1.992188 1.34375 -2.34375 1.34375 -2.71875 L 1.34375 -5.671875 L 0.234375 -5.671875 L 0.234375 -7.6875 Z M 1.34375 -7.6875 "/></g></g></g><g fill="#00a8e8" fill-opacity="1"><g transform="translate(130.212881, 261.15845)"><g><path d="M 1.15625 -11.984375 C 1.46875 -12.296875 1.835938 -12.453125 2.265625 -12.453125 C 2.691406 -12.453125 3.0625 -12.296875 3.375 -11.984375 C 3.6875 -11.671875 3.84375 -11.300781 3.84375 -10.875 C 3.84375 -10.445312 3.6875 -10.078125 3.375 -9.765625 C 3.0625 -9.453125 2.691406 -9.296875 2.265625 -9.296875 C 1.835938 -9.296875 1.46875 -9.453125 1.15625 -9.765625 C 0.84375 -10.078125 0.6875 -10.445312 0.6875 -10.875 C 0.6875 -11.300781 0.84375 -11.671875 1.15625 -11.984375 Z M 0.90625 -7.6875 L 0.90625 0 L 3.5625 0 L 3.5625 -7.6875 Z M 0.90625 -7.6875 "/></g></g></g><g fill="#00a8e8" fill-opacity="1"><g transform="translate(134.742876, 261.15845)"><g><path d="M 1.34375 -7.6875 L 1.34375 -10.5625 L 4 -10.5625 L 4 -7.6875 L 5.625 -7.6875 L 5.625 -5.671875 L 4 -5.671875 L 4 -3.21875 C 4 -2.507812 4.203125 -2.15625 4.609375 -2.15625 C 4.703125 -2.15625 4.800781 -2.175781 4.90625 -2.21875 C 5.019531 -2.257812 5.109375 -2.300781 5.171875 -2.34375 L 5.265625 -2.40625 L 5.921875 -0.25 C 5.347656 0.0625 4.695312 0.21875 3.96875 0.21875 C 3.46875 0.21875 3.035156 0.132812 2.671875 -0.03125 C 2.316406 -0.207031 2.046875 -0.441406 1.859375 -0.734375 C 1.679688 -1.035156 1.550781 -1.347656 1.46875 -1.671875 C 1.382812 -1.992188 1.34375 -2.34375 1.34375 -2.71875 L 1.34375 -5.671875 L 0.234375 -5.671875 L 0.234375 -7.6875 Z M 1.34375 -7.6875 "/></g></g></g><g fill="#00a8e8" fill-opacity="1"><g transform="translate(140.667871, 261.15845)"><g><path d="M 3.40625 -7.6875 L 3.40625 -4.03125 C 3.40625 -3.269531 3.519531 -2.726562 3.75 -2.40625 C 3.976562 -2.09375 4.367188 -1.9375 4.921875 -1.9375 C 5.472656 -1.9375 5.863281 -2.09375 6.09375 -2.40625 C 6.320312 -2.726562 6.4375 -3.269531 6.4375 -4.03125 L 6.4375 -7.6875 L 9.09375 -7.6875 L 9.09375 -3.390625 C 9.09375 -2.109375 8.757812 -1.1875 8.09375 -0.625 C 7.425781 -0.0625 6.367188 0.21875 4.921875 0.21875 C 3.472656 0.21875 2.414062 -0.0625 1.75 -0.625 C 1.082031 -1.1875 0.75 -2.109375 0.75 -3.390625 L 0.75 -7.6875 Z M 3.40625 -7.6875 "/></g></g></g><g fill="#00a8e8" fill-opacity="1"><g transform="translate(150.507867, 261.15845)"><g><path d="M 1.34375 -7.6875 L 1.34375 -10.5625 L 4 -10.5625 L 4 -7.6875 L 5.625 -7.6875 L 5.625 -5.671875 L 4 -5.671875 L 4 -3.21875 C 4 -2.507812 4.203125 -2.15625 4.609375 -2.15625 C 4.703125 -2.15625 4.800781 -2.175781 4.90625 -2.21875 C 5.019531 -2.257812 5.109375 -2.300781 5.171875 -2.34375 L 5.265625 -2.40625 L 5.921875 -0.25 C 5.347656 0.0625 4.695312 0.21875 3.96875 0.21875 C 3.46875 0.21875 3.035156 0.132812 2.671875 -0.03125 C 2.316406 -0.207031 2.046875 -0.441406 1.859375 -0.734375 C 1.679688 -1.035156 1.550781 -1.347656 1.46875 -1.671875 C 1.382812 -1.992188 1.34375 -2.34375 1.34375 -2.71875 L 1.34375 -5.671875 L 0.234375 -5.671875 L 0.234375 -7.6875 Z M 1.34375 -7.6875 "/></g></g></g><g fill="#00a8e8" fill-opacity="1"><g transform="translate(156.432862, 261.15845)"><g/></g></g><g fill="#00a8e8" fill-opacity="1"><g transform="translate(160.527855, 261.15845)"><g><path d="M 0.90625 -12.375 L 5.421875 -12.375 C 6.679688 -12.375 7.695312 -12.046875 8.46875 -11.390625 C 9.25 -10.742188 9.640625 -9.800781 9.640625 -8.5625 C 9.640625 -7.320312 9.242188 -6.347656 8.453125 -5.640625 C 7.671875 -4.941406 6.660156 -4.59375 5.421875 -4.59375 L 3.71875 -4.59375 L 3.71875 0 L 0.90625 0 Z M 3.71875 -6.84375 L 4.515625 -6.84375 C 5.140625 -6.84375 5.65625 -6.96875 6.0625 -7.21875 C 6.46875 -7.476562 6.671875 -7.894531 6.671875 -8.46875 C 6.671875 -9.0625 6.46875 -9.484375 6.0625 -9.734375 C 5.65625 -9.992188 5.140625 -10.125 4.515625 -10.125 L 3.71875 -10.125 Z M 3.71875 -6.84375 "/></g></g></g><g fill="#00a8e8" fill-opacity="1"><g transform="translate(170.517849, 261.15845)"><g><path d="M 1.421875 -0.953125 C 0.703125 -1.734375 0.34375 -2.691406 0.34375 -3.828125 C 0.34375 -4.972656 0.703125 -5.941406 1.421875 -6.734375 C 2.140625 -7.523438 3.054688 -7.921875 4.171875 -7.921875 C 5.191406 -7.921875 6.03125 -7.597656 6.6875 -6.953125 L 6.6875 -7.6875 L 9.34375 -7.6875 L 9.34375 0 L 6.71875 0 L 6.71875 -0.875 L 6.6875 -0.875 C 6.03125 -0.144531 5.191406 0.21875 4.171875 0.21875 C 3.054688 0.21875 2.140625 -0.171875 1.421875 -0.953125 Z M 3.6875 -5.140625 C 3.34375 -4.804688 3.171875 -4.375 3.171875 -3.84375 C 3.171875 -3.3125 3.332031 -2.878906 3.65625 -2.546875 C 3.988281 -2.210938 4.425781 -2.046875 4.96875 -2.046875 C 5.488281 -2.046875 5.914062 -2.210938 6.25 -2.546875 C 6.582031 -2.890625 6.75 -3.320312 6.75 -3.84375 C 6.75 -4.375 6.578125 -4.804688 6.234375 -5.140625 C 5.890625 -5.484375 5.46875 -5.65625 4.96875 -5.65625 C 4.457031 -5.65625 4.03125 -5.484375 3.6875 -5.140625 Z M 3.6875 -5.140625 "/></g></g></g><g fill="#00a8e8" fill-opacity="1"><g transform="translate(180.762839, 261.15845)"><g><path d="M 3.40625 -7.6875 L 3.40625 -4.03125 C 3.40625 -3.269531 3.519531 -2.726562 3.75 -2.40625 C 3.976562 -2.09375 4.367188 -1.9375 4.921875 -1.9375 C 5.472656 -1.9375 5.863281 -2.09375 6.09375 -2.40625 C 6.320312 -2.726562 6.4375 -3.269531 6.4375 -4.03125 L 6.4375 -7.6875 L 9.09375 -7.6875 L 9.09375 -3.390625 C 9.09375 -2.109375 8.757812 -1.1875 8.09375 -0.625 C 7.425781 -0.0625 6.367188 0.21875 4.921875 0.21875 C 3.472656 0.21875 2.414062 -0.0625 1.75 -0.625 C 1.082031 -1.1875 0.75 -2.109375 0.75 -3.390625 L 0.75 -7.6875 Z M 3.40625 -7.6875 "/></g></g></g><g fill="#00a8e8" fill-opacity="1"><g transform="translate(190.602835, 261.15845)"><g><path d="M 0.90625 0 L 0.90625 -12.90625 L 3.5625 -12.90625 L 3.5625 0 Z M 0.90625 0 "/></g></g></g><g fill="#00a8e8" fill-opacity="1"><g transform="translate(195.057825, 261.15845)"><g><path d="M 8.6875 -3.484375 L 3.109375 -3.484375 C 3.109375 -2.941406 3.28125 -2.539062 3.625 -2.28125 C 3.976562 -2.019531 4.359375 -1.890625 4.765625 -1.890625 C 5.203125 -1.890625 5.546875 -1.945312 5.796875 -2.0625 C 6.046875 -2.175781 6.328125 -2.40625 6.640625 -2.75 L 8.5625 -1.78125 C 7.757812 -0.445312 6.429688 0.21875 4.578125 0.21875 C 3.410156 0.21875 2.410156 -0.175781 1.578125 -0.96875 C 0.753906 -1.757812 0.34375 -2.710938 0.34375 -3.828125 C 0.34375 -4.953125 0.753906 -5.914062 1.578125 -6.71875 C 2.410156 -7.519531 3.410156 -7.921875 4.578125 -7.921875 C 5.796875 -7.921875 6.785156 -7.566406 7.546875 -6.859375 C 8.316406 -6.160156 8.703125 -5.15625 8.703125 -3.84375 C 8.703125 -3.65625 8.695312 -3.535156 8.6875 -3.484375 Z M 3.1875 -4.953125 L 6.109375 -4.953125 C 6.046875 -5.347656 5.882812 -5.648438 5.625 -5.859375 C 5.375 -6.078125 5.050781 -6.1875 4.65625 -6.1875 C 4.207031 -6.1875 3.851562 -6.070312 3.59375 -5.84375 C 3.332031 -5.613281 3.195312 -5.316406 3.1875 -4.953125 Z M 3.1875 -4.953125 "/></g></g></g><g fill="#00a8e8" fill-opacity="1"><g transform="translate(204.102811, 261.15845)"><g/></g></g><g fill="#00a8e8" fill-opacity="1"><g transform="translate(208.197805, 261.15845)"><g><path d="M 11.125 0 L 10.546875 -7.328125 L 10.46875 -7.328125 L 7.9375 -0.078125 L 6.25 -0.078125 L 3.71875 -7.328125 L 3.640625 -7.328125 L 3.0625 0 L 0.234375 0 L 1.34375 -12.375 L 4.34375 -12.375 L 7.09375 -5.234375 L 9.84375 -12.375 L 12.84375 -12.375 L 13.953125 0 Z M 11.125 0 "/></g></g></g><g fill="#00a8e8" fill-opacity="1"><g transform="translate(222.387791, 261.15845)"><g><path d="M 8.6875 -3.484375 L 3.109375 -3.484375 C 3.109375 -2.941406 3.28125 -2.539062 3.625 -2.28125 C 3.976562 -2.019531 4.359375 -1.890625 4.765625 -1.890625 C 5.203125 -1.890625 5.546875 -1.945312 5.796875 -2.0625 C 6.046875 -2.175781 6.328125 -2.40625 6.640625 -2.75 L 8.5625 -1.78125 C 7.757812 -0.445312 6.429688 0.21875 4.578125 0.21875 C 3.410156 0.21875 2.410156 -0.175781 1.578125 -0.96875 C 0.753906 -1.757812 0.34375 -2.710938 0.34375 -3.828125 C 0.34375 -4.953125 0.753906 -5.914062 1.578125 -6.71875 C 2.410156 -7.519531 3.410156 -7.921875 4.578125 -7.921875 C 5.796875 -7.921875 6.785156 -7.566406 7.546875 -6.859375 C 8.316406 -6.160156 8.703125 -5.15625 8.703125 -3.84375 C 8.703125 -3.65625 8.695312 -3.535156 8.6875 -3.484375 Z M 3.1875 -4.953125 L 6.109375 -4.953125 C 6.046875 -5.347656 5.882812 -5.648438 5.625 -5.859375 C 5.375 -6.078125 5.050781 -6.1875 4.65625 -6.1875 C 4.207031 -6.1875 3.851562 -6.070312 3.59375 -5.84375 C 3.332031 -5.613281 3.195312 -5.316406 3.1875 -4.953125 Z M 3.1875 -4.953125 "/></g></g></g><g fill="#00a8e8" fill-opacity="1"><g transform="translate(231.432777, 261.15845)"><g><path d="M 0.90625 0 L 0.90625 -7.6875 L 3.5625 -7.6875 L 3.5625 -6.578125 L 3.578125 -6.578125 C 3.597656 -6.617188 3.628906 -6.671875 3.671875 -6.734375 C 3.722656 -6.796875 3.820312 -6.898438 3.96875 -7.046875 C 4.125 -7.203125 4.285156 -7.335938 4.453125 -7.453125 C 4.617188 -7.578125 4.835938 -7.6875 5.109375 -7.78125 C 5.378906 -7.875 5.65625 -7.921875 5.9375 -7.921875 C 6.226562 -7.921875 6.515625 -7.878906 6.796875 -7.796875 C 7.078125 -7.722656 7.28125 -7.644531 7.40625 -7.5625 L 7.625 -7.4375 L 6.515625 -5.1875 C 6.179688 -5.46875 5.71875 -5.609375 5.125 -5.609375 C 4.8125 -5.609375 4.535156 -5.535156 4.296875 -5.390625 C 4.066406 -5.253906 3.90625 -5.085938 3.8125 -4.890625 C 3.71875 -4.691406 3.648438 -4.519531 3.609375 -4.375 C 3.578125 -4.238281 3.5625 -4.128906 3.5625 -4.046875 L 3.5625 0 Z M 0.90625 0 "/></g></g></g><g fill="#00a8e8" fill-opacity="1"><g transform="translate(238.90277, 261.15845)"><g><path d="M 5 -5.75 C 4.5 -5.75 4.066406 -5.5625 3.703125 -5.1875 C 3.347656 -4.820312 3.171875 -4.378906 3.171875 -3.859375 C 3.171875 -3.328125 3.347656 -2.875 3.703125 -2.5 C 4.066406 -2.132812 4.5 -1.953125 5 -1.953125 C 5.238281 -1.953125 5.460938 -1.976562 5.671875 -2.03125 C 5.890625 -2.09375 6.050781 -2.15625 6.15625 -2.21875 L 6.28125 -2.3125 L 7.1875 -0.46875 C 7.113281 -0.414062 7.015625 -0.351562 6.890625 -0.28125 C 6.765625 -0.207031 6.476562 -0.109375 6.03125 0.015625 C 5.59375 0.148438 5.117188 0.21875 4.609375 0.21875 C 3.472656 0.21875 2.476562 -0.175781 1.625 -0.96875 C 0.769531 -1.757812 0.34375 -2.710938 0.34375 -3.828125 C 0.34375 -4.941406 0.769531 -5.898438 1.625 -6.703125 C 2.476562 -7.515625 3.472656 -7.921875 4.609375 -7.921875 C 5.117188 -7.921875 5.585938 -7.859375 6.015625 -7.734375 C 6.441406 -7.617188 6.75 -7.5 6.9375 -7.375 L 7.1875 -7.203125 L 6.28125 -5.390625 C 5.957031 -5.628906 5.53125 -5.75 5 -5.75 Z M 5 -5.75 "/></g></g></g><g fill="#00a8e8" fill-opacity="1"><g transform="translate(246.267764, 261.15845)"><g><path d="M 3.40625 -7.6875 L 3.40625 -4.03125 C 3.40625 -3.269531 3.519531 -2.726562 3.75 -2.40625 C 3.976562 -2.09375 4.367188 -1.9375 4.921875 -1.9375 C 5.472656 -1.9375 5.863281 -2.09375 6.09375 -2.40625 C 6.320312 -2.726562 6.4375 -3.269531 6.4375 -4.03125 L 6.4375 -7.6875 L 9.09375 -7.6875 L 9.09375 -3.390625 C 9.09375 -2.109375 8.757812 -1.1875 8.09375 -0.625 C 7.425781 -0.0625 6.367188 0.21875 4.921875 0.21875 C 3.472656 0.21875 2.414062 -0.0625 1.75 -0.625 C 1.082031 -1.1875 0.75 -2.109375 0.75 -3.390625 L 0.75 -7.6875 Z M 3.40625 -7.6875 "/></g></g></g><g fill="#00a8e8" fill-opacity="1"><g transform="translate(256.107759, 261.15845)"><g><path d="M 0.90625 0 L 0.90625 -7.6875 L 3.5625 -7.6875 L 3.5625 -6.578125 L 3.578125 -6.578125 C 3.597656 -6.617188 3.628906 -6.671875 3.671875 -6.734375 C 3.722656 -6.796875 3.820312 -6.898438 3.96875 -7.046875 C 4.125 -7.203125 4.285156 -7.335938 4.453125 -7.453125 C 4.617188 -7.578125 4.835938 -7.6875 5.109375 -7.78125 C 5.378906 -7.875 5.65625 -7.921875 5.9375 -7.921875 C 6.226562 -7.921875 6.515625 -7.878906 6.796875 -7.796875 C 7.078125 -7.722656 7.28125 -7.644531 7.40625 -7.5625 L 7.625 -7.4375 L 6.515625 -5.1875 C 6.179688 -5.46875 5.71875 -5.609375 5.125 -5.609375 C 4.8125 -5.609375 4.535156 -5.535156 4.296875 -5.390625 C 4.066406 -5.253906 3.90625 -5.085938 3.8125 -4.890625 C 3.71875 -4.691406 3.648438 -4.519531 3.609375 -4.375 C 3.578125 -4.238281 3.5625 -4.128906 3.5625 -4.046875 L 3.5625 0 Z M 0.90625 0 "/></g></g></g><g fill="#00a8e8" fill-opacity="1"><g transform="translate(263.577752, 261.15845)"><g><path d="M 8.6875 -3.484375 L 3.109375 -3.484375 C 3.109375 -2.941406 3.28125 -2.539062 3.625 -2.28125 C 3.976562 -2.019531 4.359375 -1.890625 4.765625 -1.890625 C 5.203125 -1.890625 5.546875 -1.945312 5.796875 -2.0625 C 6.046875 -2.175781 6.328125 -2.40625 6.640625 -2.75 L 8.5625 -1.78125 C 7.757812 -0.445312 6.429688 0.21875 4.578125 0.21875 C 3.410156 0.21875 2.410156 -0.175781 1.578125 -0.96875 C 0.753906 -1.757812 0.34375 -2.710938 0.34375 -3.828125 C 0.34375 -4.953125 0.753906 -5.914062 1.578125 -6.71875 C 2.410156 -7.519531 3.410156 -7.921875 4.578125 -7.921875 C 5.796875 -7.921875 6.785156 -7.566406 7.546875 -6.859375 C 8.316406 -6.160156 8.703125 -5.15625 8.703125 -3.84375 C 8.703125 -3.65625 8.695312 -3.535156 8.6875 -3.484375 Z M 3.1875 -4.953125 L 6.109375 -4.953125 C 6.046875 -5.347656 5.882812 -5.648438 5.625 -5.859375 C 5.375 -6.078125 5.050781 -6.1875 4.65625 -6.1875 C 4.207031 -6.1875 3.851562 -6.070312 3.59375 -5.84375 C 3.332031 -5.613281 3.195312 -5.316406 3.1875 -4.953125 Z M 3.1875 -4.953125 "/></g></g></g></svg>